<svg xmlns="http://www.w3.org/2000/svg" viewBox="0 0 1800 1640" width="1800" height="1640" font-family="Segoe UI,Arial,sans-serif">
<defs><marker id="a0" markerWidth="10" markerHeight="7" refX="9" refY="3.5" orient="auto"><polygon points="0 0,10 3.5,0 7" fill="#444"/></marker><marker id="ab" markerWidth="10" markerHeight="7" refX="9" refY="3.5" orient="auto"><polygon points="0 0,10 3.5,0 7" fill="#1a73e8"/></marker><marker id="ao" markerWidth="10" markerHeight="7" refX="9" refY="3.5" orient="auto"><polygon points="0 0,10 3.5,0 7" fill="#e65100"/></marker><marker id="ag" markerWidth="10" markerHeight="7" refX="9" refY="3.5" orient="auto"><polygon points="0 0,10 3.5,0 7" fill="#1b5e20"/></marker><marker id="ar" markerWidth="10" markerHeight="7" refX="9" refY="3.5" orient="auto"><polygon points="0 0,10 3.5,0 7" fill="#b71c1c"/></marker><marker id="ap" markerWidth="10" markerHeight="7" refX="9" refY="3.5" orient="auto"><polygon points="0 0,10 3.5,0 7" fill="#6a1b9a"/></marker><filter id="sh"><feDropShadow dx="2" dy="2" stdDeviation="3" flood-color="#00000020"/></filter></defs>
<rect width="1800" height="1640" fill="#eef2f7"/>
<text x="900" y="32" text-anchor="middle" font-size="20" font-weight="bold" fill="#1a1a2e">Enterprise Multi-Region DR Architecture — Two Independent DR Layers</text>
<text x="900" y="52" text-anchor="middle" font-size="11" fill="#555">DR Layer 1: Application DR (Route53 user traffic) | DR Layer 2: Network DR (On-Prem connectivity via dual TGW + BGP VPN)</text>
<rect x="20" y="64" width="1760" height="28" rx="6" fill="#e8f0fe" stroke="#1a73e8" stroke-width="1.5"/>
<text x="900" y="82" text-anchor="middle" font-size="12" font-weight="bold" fill="#1a73e8">DR LAYER 1 — Application DR (User Traffic Only) — Route53 Failover DNS</text>
<rect x="750" y="100" width="300" height="38" rx="19" fill="#e8f0fe" stroke="#1a73e8" stroke-width="2" filter="url(#sh)"/>
<text x="900" y="124" text-anchor="middle" font-size="13" font-weight="bold" fill="#1a73e8">Internet (User Traffic)</text>
<rect x="700" y="148" width="400" height="52" rx="10" fill="#fff" stroke="#1a73e8" stroke-width="2" filter="url(#sh)"/>
<text x="900" y="168" text-anchor="middle" font-size="12" font-weight="bold" fill="#1a73e8">Route53 Failover DNS  app.example.com</text>
<text x="900" y="184" text-anchor="middle" font-size="10" fill="#555">PRIMARY → Tokyo ALB  |  SECONDARY → Osaka ALB  |  TTL 30s  |  HC every 10s</text>
<rect x="200" y="218" width="280" height="52" rx="10" fill="#e8f5e9" stroke="#43a047" stroke-width="2" filter="url(#sh)"/>
<text x="340" y="238" text-anchor="middle" font-size="12" font-weight="bold" fill="#1b5e20">Tokyo ALB  [PRIMARY]</text>
<text x="340" y="254" text-anchor="middle" font-size="10" fill="#555">tokyo-alb.ap-northeast-1.elb.amazonaws.com</text>
<rect x="1320" y="218" width="280" height="52" rx="10" fill="#fff3e0" stroke="#ef6c00" stroke-width="2" filter="url(#sh)"/>
<text x="1460" y="238" text-anchor="middle" font-size="12" font-weight="bold" fill="#bf360c">Osaka ALB  [SECONDARY]</text>
<text x="1460" y="254" text-anchor="middle" font-size="10" fill="#555">osaka-alb.ap-northeast-3.elb.amazonaws.com</text>
<line x1="760" y1="200" x2="480" y2="218" stroke="#1a73e8" stroke-width="2" marker-end="url(#ab)"/>
<text x="590" y="210" text-anchor="middle" font-size="9" fill="#1a73e8">PRIMARY (active)</text>
<line x1="1040" y1="200" x2="1320" y2="218" stroke="#e65100" stroke-width="2" stroke-dasharray="6,3" marker-end="url(#ao)"/>
<text x="1210" y="210" text-anchor="middle" font-size="9" fill="#e65100">SECONDARY (standby)</text>
<line x1="900" y1="138" x2="900" y2="148" stroke="#1a73e8" stroke-width="2" marker-end="url(#ab)"/>
<rect x="560" y="280" width="680" height="28" rx="6" fill="#e8f0fe" stroke="#1a73e8" stroke-width="1"/>
<text x="900" y="298" text-anchor="middle" font-size="10" fill="#1565c0">Layer 1 is SELF-CONTAINED. Each ALB serves users independently. No cross-region dependency. Failover = DNS record flip only.</text>

<rect x="20" y="320" width="1760" height="28" rx="6" fill="#fce4ec" stroke="#c62828" stroke-width="1.5"/>
<text x="900" y="338" text-anchor="middle" font-size="12" font-weight="bold" fill="#b71c1c">DR LAYER 2 — Network DR (On-Prem Connectivity) — Dual TGW + BGP VPN — COMPLETELY SEPARATE FROM LAYER 1</text>
<rect x="20" y="358" width="760" height="620" rx="16" fill="#fffde7" stroke="#f9a825" stroke-width="2.5" stroke-dasharray="8,4" filter="url(#sh)"/>
<rect x="20" y="358" width="760" height="32" rx="16" fill="#f9a825"/>
<text x="400" y="379" text-anchor="middle" font-size="13" font-weight="bold" fill="#fff">ap-northeast-1 · Tokyo Region  [PRIMARY]</text>
<rect x="38" y="400" width="724" height="280" rx="12" fill="#fff9c4" stroke="#fbc02d" stroke-width="2" filter="url(#sh)"/>
<text x="400" y="418" text-anchor="middle" font-size="12" font-weight="bold" fill="#e65100">tokyo-vpc · 10.0.0.0/16</text>
<rect x="52" y="428" width="320" height="230" rx="10" fill="#fff8e1" stroke="#f9a825" stroke-width="1.2" stroke-dasharray="5,3"/>
<text x="212" y="445" text-anchor="middle" font-size="10" fill="#795548" font-weight="bold">AZ: ap-northeast-1a</text>
<rect x="390" y="428" width="320" height="230" rx="10" fill="#fff8e1" stroke="#f9a825" stroke-width="1.2" stroke-dasharray="5,3"/>
<text x="550" y="445" text-anchor="middle" font-size="10" fill="#795548" font-weight="bold">AZ: ap-northeast-1c</text>
<rect x="64" y="454" width="296" height="56" rx="8" fill="#e8f5e9" stroke="#43a047" stroke-width="1.5"/>
<text x="212" y="472" text-anchor="middle" font-size="10" font-weight="bold" fill="#1b5e20">Public  10.0.0.0/24</text>
<rect x="130" y="478" width="164" height="22" rx="5" fill="#fff3e0" stroke="#ef6c00" stroke-width="1"/>
<text x="212" y="493" text-anchor="middle" font-size="9" font-weight="bold" fill="#bf360c">NAT GW + ALB</text>
<rect x="402" y="454" width="296" height="56" rx="8" fill="#e8f5e9" stroke="#43a047" stroke-width="1.5"/>
<text x="550" y="472" text-anchor="middle" font-size="10" font-weight="bold" fill="#1b5e20">Public  10.0.1.0/24</text>
<rect x="468" y="478" width="164" height="22" rx="5" fill="#fff3e0" stroke="#ef6c00" stroke-width="1"/>
<text x="550" y="493" text-anchor="middle" font-size="9" font-weight="bold" fill="#bf360c">NAT GW + ALB</text>
<rect x="64" y="522" width="296" height="120" rx="8" fill="#e3f2fd" stroke="#1e88e5" stroke-width="1.5"/>
<text x="212" y="540" text-anchor="middle" font-size="10" font-weight="bold" fill="#0d47a1">Private  10.0.2.0/24</text>
<text x="212" y="556" text-anchor="middle" font-size="9" fill="#555">192.168.0.0/16 → Tokyo TGW</text>
<text x="212" y="570" text-anchor="middle" font-size="9" fill="#555">10.1.0.0/16 → Tokyo TGW</text>
<rect x="112" y="578" width="200" height="18" rx="4" fill="#e8eaf6" stroke="#5c6bc0" stroke-width="1"/>
<text x="212" y="591" text-anchor="middle" font-size="8" fill="#283593">TGW ENI (tokyo-tgw)</text>
<rect x="402" y="522" width="296" height="120" rx="8" fill="#e3f2fd" stroke="#1e88e5" stroke-width="1.5"/>
<text x="550" y="540" text-anchor="middle" font-size="10" font-weight="bold" fill="#0d47a1">Private  10.0.3.0/24</text>
<text x="550" y="556" text-anchor="middle" font-size="9" fill="#555">192.168.0.0/16 → Tokyo TGW</text>
<text x="550" y="570" text-anchor="middle" font-size="9" fill="#555">10.1.0.0/16 → Tokyo TGW</text>
<rect x="450" y="578" width="200" height="18" rx="4" fill="#e8eaf6" stroke="#5c6bc0" stroke-width="1"/>
<text x="550" y="591" text-anchor="middle" font-size="8" fill="#283593">TGW ENI (tokyo-tgw)</text>
<rect x="50" y="698" width="720" height="100" rx="12" fill="#fce4ec" stroke="#e91e63" stroke-width="2" filter="url(#sh)"/>
<text x="410" y="718" text-anchor="middle" font-size="13" font-weight="bold" fill="#880e4f">Tokyo TGW  (ASN 64512)  [PRIMARY]</text>
<text x="410" y="734" text-anchor="middle" font-size="10" fill="#ad1457">VPN ECMP ON · BGP dynamic routing · Manual RT management</text>
<rect x="62" y="742" width="310" height="44" rx="6" fill="#fff" stroke="#e91e63" stroke-width="1.2"/>
<text x="217" y="758" text-anchor="middle" font-size="9" font-weight="bold" fill="#880e4f">vpc-rt</text>
<text x="217" y="771" text-anchor="middle" font-size="8" fill="#555">10.0.0.0/16 → vpc-attachment</text>
<text x="217" y="782" text-anchor="middle" font-size="8" fill="#555">192.168.0.0/16 → vpn-attachment (BGP learned)</text>
<rect x="388" y="742" width="370" height="44" rx="6" fill="#fce4ec" stroke="#e91e63" stroke-width="1.2"/>
<text x="573" y="758" text-anchor="middle" font-size="9" font-weight="bold" fill="#880e4f">vpn-rt</text>
<text x="573" y="771" text-anchor="middle" font-size="8" fill="#555">10.0.0.0/16 → vpc-attachment (BGP propagated)</text>
<text x="573" y="782" text-anchor="middle" font-size="8" fill="#555">Assoc: vpn-primary + vpn-secondary attachments</text>
<rect x="80" y="816" width="280" height="44" rx="8" fill="#fff3e0" stroke="#ef6c00" stroke-width="1.5"/>
<text x="220" y="833" text-anchor="middle" font-size="10" font-weight="bold" fill="#bf360c">VPN Primary  (BGP)</text>
<text x="220" y="847" text-anchor="middle" font-size="9" fill="#555">2 tunnels · LOCAL_PREF 200</text>
<rect x="400" y="816" width="280" height="44" rx="8" fill="#fff3e0" stroke="#ef6c00" stroke-width="1.5"/>
<text x="540" y="833" text-anchor="middle" font-size="10" font-weight="bold" fill="#bf360c">VPN Secondary  (BGP)</text>
<text x="540" y="847" text-anchor="middle" font-size="9" fill="#555">2 tunnels · redundant path</text>
<rect x="38" y="870" width="724" height="96" rx="8" fill="none" stroke="#ccc" stroke-width="1" stroke-dasharray="4,3"/>
<text x="400" y="886" text-anchor="middle" font-size="9" fill="#777">CDK Stacks: TokyoNetworkStack + TokyoTgwStack</text>
<text x="400" y="902" text-anchor="middle" font-size="9" fill="#555">TgwStack creates: TGW · VPC Attachment · Customer Gateways · VPN Connections · vpc-rt · vpn-rt</text>
<text x="400" y="918" text-anchor="middle" font-size="9" fill="#555">BGP sessions are always UP. Tokyo path preferred via LOCAL_PREF 200 on on-prem router.</text>
<text x="400" y="934" text-anchor="middle" font-size="9" fill="#c62828">Failover: Tokyo TGW BGP drops → on-prem reconverges to Osaka TGW. Tokyo VPC becomes unreachable from on-prem.</text>
<text x="400" y="950" text-anchor="middle" font-size="9" fill="#555">Recovery: Tokyo TGW BGP restores → on-prem prefers Tokyo again (LOCAL_PREF 200 wins).</text>

<rect x="1020" y="358" width="760" height="620" rx="16" fill="#e8f5e9" stroke="#43a047" stroke-width="2.5" stroke-dasharray="8,4" filter="url(#sh)"/>
<rect x="1020" y="358" width="760" height="32" rx="16" fill="#43a047"/>
<text x="1400" y="379" text-anchor="middle" font-size="13" font-weight="bold" fill="#fff">ap-northeast-3 · Osaka Region  [SECONDARY]</text>
<rect x="1038" y="400" width="724" height="280" rx="12" fill="#f1f8e9" stroke="#66bb6a" stroke-width="2" filter="url(#sh)"/>
<text x="1400" y="418" text-anchor="middle" font-size="12" font-weight="bold" fill="#1b5e20">osaka-vpc · 10.1.0.0/16</text>
<rect x="1052" y="428" width="320" height="230" rx="10" fill="#f9fbe7" stroke="#aed581" stroke-width="1.2" stroke-dasharray="5,3"/>
<text x="1212" y="445" text-anchor="middle" font-size="10" fill="#558b2f" font-weight="bold">AZ: ap-northeast-3a</text>
<rect x="1390" y="428" width="320" height="230" rx="10" fill="#f9fbe7" stroke="#aed581" stroke-width="1.2" stroke-dasharray="5,3"/>
<text x="1550" y="445" text-anchor="middle" font-size="10" fill="#558b2f" font-weight="bold">AZ: ap-northeast-3c</text>
<rect x="1064" y="454" width="296" height="56" rx="8" fill="#e8f5e9" stroke="#43a047" stroke-width="1.5"/>
<text x="1212" y="472" text-anchor="middle" font-size="10" font-weight="bold" fill="#1b5e20">Public  10.1.0.0/24</text>
<rect x="1130" y="478" width="164" height="22" rx="5" fill="#fff3e0" stroke="#ef6c00" stroke-width="1"/>
<text x="1212" y="493" text-anchor="middle" font-size="9" font-weight="bold" fill="#bf360c">NAT GW + ALB</text>
<rect x="1402" y="454" width="296" height="56" rx="8" fill="#e8f5e9" stroke="#43a047" stroke-width="1.5"/>
<text x="1550" y="472" text-anchor="middle" font-size="10" font-weight="bold" fill="#1b5e20">Public  10.1.1.0/24</text>
<rect x="1468" y="478" width="164" height="22" rx="5" fill="#fff3e0" stroke="#ef6c00" stroke-width="1"/>
<text x="1550" y="493" text-anchor="middle" font-size="9" font-weight="bold" fill="#bf360c">NAT GW + ALB</text>
<rect x="1064" y="522" width="296" height="120" rx="8" fill="#e3f2fd" stroke="#1e88e5" stroke-width="1.5"/>
<text x="1212" y="540" text-anchor="middle" font-size="10" font-weight="bold" fill="#0d47a1">Private  10.1.2.0/24</text>
<text x="1212" y="556" text-anchor="middle" font-size="9" fill="#555">192.168.0.0/16 → Osaka TGW</text>
<text x="1212" y="570" text-anchor="middle" font-size="9" fill="#555">10.0.0.0/16 → Osaka TGW</text>
<rect x="1112" y="578" width="200" height="18" rx="4" fill="#e8eaf6" stroke="#5c6bc0" stroke-width="1"/>
<text x="1212" y="591" text-anchor="middle" font-size="8" fill="#283593">TGW ENI (osaka-tgw)</text>
<rect x="1402" y="522" width="296" height="120" rx="8" fill="#e3f2fd" stroke="#1e88e5" stroke-width="1.5"/>
<text x="1550" y="540" text-anchor="middle" font-size="10" font-weight="bold" fill="#0d47a1">Private  10.1.3.0/24</text>
<text x="1550" y="556" text-anchor="middle" font-size="9" fill="#555">192.168.0.0/16 → Osaka TGW</text>
<text x="1550" y="570" text-anchor="middle" font-size="9" fill="#555">10.0.0.0/16 → Osaka TGW</text>
<rect x="1450" y="578" width="200" height="18" rx="4" fill="#e8eaf6" stroke="#5c6bc0" stroke-width="1"/>
<text x="1550" y="591" text-anchor="middle" font-size="8" fill="#283593">TGW ENI (osaka-tgw)</text>
<rect x="1050" y="698" width="720" height="100" rx="12" fill="#e8f5e9" stroke="#2e7d32" stroke-width="2" filter="url(#sh)"/>
<text x="1410" y="718" text-anchor="middle" font-size="13" font-weight="bold" fill="#1b5e20">Osaka TGW  (ASN 64513)  [SECONDARY]</text>
<text x="1410" y="734" text-anchor="middle" font-size="10" fill="#388e3c">VPN ECMP ON · BGP dynamic routing · Manual RT management</text>
<rect x="1062" y="742" width="310" height="44" rx="6" fill="#fff" stroke="#2e7d32" stroke-width="1.2"/>
<text x="1217" y="758" text-anchor="middle" font-size="9" font-weight="bold" fill="#1b5e20">vpc-rt</text>
<text x="1217" y="771" text-anchor="middle" font-size="8" fill="#555">10.1.0.0/16 → vpc-attachment</text>
<text x="1217" y="782" text-anchor="middle" font-size="8" fill="#555">192.168.0.0/16 → vpn-attachment (BGP learned)</text>
<rect x="1388" y="742" width="370" height="44" rx="6" fill="#e8f5e9" stroke="#2e7d32" stroke-width="1.2"/>
<text x="1573" y="758" text-anchor="middle" font-size="9" font-weight="bold" fill="#1b5e20">vpn-rt</text>
<text x="1573" y="771" text-anchor="middle" font-size="8" fill="#555">10.1.0.0/16 → vpc-attachment (BGP propagated)</text>
<text x="1573" y="782" text-anchor="middle" font-size="8" fill="#555">Assoc: vpn-primary + vpn-secondary attachments</text>
<rect x="1080" y="816" width="280" height="44" rx="8" fill="#fff3e0" stroke="#ef6c00" stroke-width="1.5"/>
<text x="1220" y="833" text-anchor="middle" font-size="10" font-weight="bold" fill="#bf360c">VPN Primary  (BGP)</text>
<text x="1220" y="847" text-anchor="middle" font-size="9" fill="#555">2 tunnels · LOCAL_PREF 100</text>
<rect x="1400" y="816" width="280" height="44" rx="8" fill="#fff3e0" stroke="#ef6c00" stroke-width="1.5"/>
<text x="1540" y="833" text-anchor="middle" font-size="10" font-weight="bold" fill="#bf360c">VPN Secondary  (BGP)</text>
<text x="1540" y="847" text-anchor="middle" font-size="9" fill="#555">2 tunnels · redundant path</text>
<rect x="1038" y="870" width="724" height="96" rx="8" fill="none" stroke="#ccc" stroke-width="1" stroke-dasharray="4,3"/>
<text x="1400" y="886" text-anchor="middle" font-size="9" fill="#777">CDK Stacks: OsakaNetworkStack + OsakaTgwStack</text>
<text x="1400" y="902" text-anchor="middle" font-size="9" fill="#555">Osaka TGW is fully independent. Always connected to on-prem via its own VPN sessions.</text>
<text x="1400" y="918" text-anchor="middle" font-size="9" fill="#555">Osaka VPN LOCAL_PREF 100 → standby path. On-prem prefers Tokyo (200) at steady state.</text>
<text x="1400" y="934" text-anchor="middle" font-size="9" fill="#2e7d32">When Tokyo TGW fails: on-prem BGP reconverges here automatically. No Lambda. No route swap.</text>
<text x="1400" y="950" text-anchor="middle" font-size="9" fill="#555">Osaka VPC serves on-prem traffic independently during Tokyo outage.</text>

<rect x="580" y="1060" width="640" height="130" rx="14" fill="#37474f" stroke="#263238" stroke-width="2" filter="url(#sh)"/>
<rect x="580" y="1060" width="640" height="32" rx="14" fill="#263238"/>
<text x="900" y="1081" text-anchor="middle" font-size="13" font-weight="bold" fill="#fff">On-Premises Data Center</text>
<rect x="596" y="1100" width="280" height="50" rx="8" fill="#546e7a" stroke="#90a4ae" stroke-width="1.2"/>
<text x="736" y="1118" text-anchor="middle" font-size="10" font-weight="bold" fill="#fff">BGP Router (ASN 65000)</text>
<text x="736" y="1132" text-anchor="middle" font-size="9" fill="#cfd8dc">203.0.113.1 / 203.0.113.2</text>
<text x="736" y="1144" text-anchor="middle" font-size="9" fill="#cfd8dc">192.168.0.0/16 (on-prem CIDR)</text>
<rect x="924" y="1100" width="280" height="50" rx="8" fill="#546e7a" stroke="#90a4ae" stroke-width="1.2"/>
<text x="1064" y="1118" text-anchor="middle" font-size="10" font-weight="bold" fill="#fff">On-Prem Servers</text>
<text x="1064" y="1132" text-anchor="middle" font-size="9" fill="#cfd8dc">192.168.1.0/24</text>
<text x="1064" y="1144" text-anchor="middle" font-size="9" fill="#cfd8dc">Access AWS via BGP router</text>
<line x1="220" y1="860" x2="700" y2="1100" stroke="#1b5e20" stroke-width="3" marker-end="url(#ag)" marker-start="url(#ag)"/>
<rect x="44" y="960" width="200" height="36" rx="6" fill="#e8f5e9" stroke="#1b5e20" stroke-width="1.5"/>
<text x="144" y="976" text-anchor="middle" font-size="10" font-weight="bold" fill="#1b5e20">PRIMARY PATH</text>
<text x="144" y="990" text-anchor="middle" font-size="9" fill="#1b5e20">BGP LOCAL_PREF 200</text>
<line x1="1580" y1="860" x2="1100" y2="1100" stroke="#e65100" stroke-width="2.5" stroke-dasharray="10,5" marker-end="url(#ao)" marker-start="url(#ao)"/>
<rect x="1556" y="960" width="200" height="36" rx="6" fill="#fff3e0" stroke="#e65100" stroke-width="1.5"/>
<text x="1656" y="976" text-anchor="middle" font-size="10" font-weight="bold" fill="#bf360c">SECONDARY PATH</text>
<text x="1656" y="990" text-anchor="middle" font-size="9" fill="#bf360c">BGP LOCAL_PREF 100</text>
<line x1="770" y1="748" x2="1050" y2="748" stroke="#b71c1c" stroke-width="2.5" stroke-dasharray="8,4" marker-end="url(#ar)" marker-start="url(#ar)"/>
<rect x="810" y="732" width="180" height="32" rx="6" fill="#ffebee" stroke="#b71c1c" stroke-width="1.5"/>
<text x="900" y="748" text-anchor="middle" font-size="10" font-weight="bold" fill="#b71c1c">TGW Peering</text>
<text x="900" y="760" text-anchor="middle" font-size="8" fill="#c62828">VPC-to-VPC only</text>
<line x1="212" y1="642" x2="250" y2="698" stroke="#444" stroke-width="1.5" marker-end="url(#a0)"/>
<line x1="550" y1="642" x2="510" y2="698" stroke="#444" stroke-width="1.5" marker-end="url(#a0)"/>
<line x1="1212" y1="642" x2="1250" y2="698" stroke="#444" stroke-width="1.5" marker-end="url(#a0)"/>
<line x1="1550" y1="642" x2="1510" y2="698" stroke="#444" stroke-width="1.5" marker-end="url(#a0)"/>
<line x1="220" y1="798" x2="220" y2="816" stroke="#e65100" stroke-width="1.5" marker-end="url(#ao)"/>
<line x1="540" y1="798" x2="540" y2="816" stroke="#e65100" stroke-width="1.5" marker-end="url(#ao)"/>
<line x1="1220" y1="798" x2="1220" y2="816" stroke="#e65100" stroke-width="1.5" marker-end="url(#ao)"/>
<line x1="1540" y1="798" x2="1540" y2="816" stroke="#e65100" stroke-width="1.5" marker-end="url(#ao)"/>

<rect x="20" y="1210" width="1760" height="240" rx="12" fill="#fff" stroke="#37474f" stroke-width="1.5" filter="url(#sh)"/>
<rect x="20" y="1210" width="1760" height="30" rx="12" fill="#37474f"/>
<text x="900" y="1230" text-anchor="middle" font-size="12" font-weight="bold" fill="#fff">Traffic Flow — Normal State vs. Failover State (DR Layer 2: On-Prem Connectivity)</text>
<rect x="32" y="1248" width="840" height="190" rx="8" fill="#e8f5e9" stroke="#2e7d32" stroke-width="1.5"/>
<text x="452" y="1266" text-anchor="middle" font-size="11" font-weight="bold" fill="#1b5e20">NORMAL STATE  (Tokyo TGW healthy)</text>
<text x="452" y="1284" text-anchor="middle" font-size="10" fill="#333">On-prem → AWS:  On-prem router → Tokyo TGW VPN (LOCAL_PREF 200) → Tokyo TGW vpc-rt → Tokyo VPC</text>
<text x="452" y="1300" text-anchor="middle" font-size="10" fill="#333">AWS → On-prem:  Tokyo VPC → Tokyo TGW → vpn-rt → Tokyo VPN → On-prem router</text>
<text x="452" y="1316" text-anchor="middle" font-size="10" fill="#555">Osaka TGW VPN sessions are ALWAYS UP but idle (LOCAL_PREF 100 = not preferred by BGP).</text>
<text x="452" y="1332" text-anchor="middle" font-size="10" fill="#555">TGW Inter-Region Peering active for Tokyo VPC ↔ Osaka VPC internal traffic (separate concern).</text>
<text x="452" y="1348" text-anchor="middle" font-size="10" fill="#1a73e8">Layer 1: Users → Route53 → Tokyo ALB (PRIMARY record active).</text>
<text x="452" y="1364" text-anchor="middle" font-size="10" fill="#555">Layer 1 and Layer 2 are independent. Either can fail without affecting the other.</text>
<text x="452" y="1380" text-anchor="middle" font-size="9" fill="#888">No Lambda. No route swap. BGP handles Layer 2. Route53 handles Layer 1.</text>
<rect x="908" y="1248" width="860" height="190" rx="8" fill="#ffebee" stroke="#c62828" stroke-width="1.5"/>
<text x="1338" y="1266" text-anchor="middle" font-size="11" font-weight="bold" fill="#b71c1c">FAILOVER STATE  (Tokyo TGW fails)</text>
<text x="1338" y="1284" text-anchor="middle" font-size="10" fill="#333">① Tokyo TGW BGP session drops (hold-time expires ~30s).</text>
<text x="1338" y="1300" text-anchor="middle" font-size="10" fill="#333">② On-prem router withdraws Tokyo routes from its BGP table.</text>
<text x="1338" y="1316" text-anchor="middle" font-size="10" fill="#333">③ BGP reconverges: on-prem → Osaka TGW VPN (LOCAL_PREF 100, now best path).</text>
<text x="1338" y="1332" text-anchor="middle" font-size="10" fill="#333">④ On-prem → Osaka TGW vpc-rt → Osaka VPC. Osaka serves on-prem traffic.</text>
<text x="1338" y="1348" text-anchor="middle" font-size="10" fill="#c62828">Tokyo VPC is unreachable from on-prem (Tokyo TGW is down). This is expected.</text>
<text x="1338" y="1364" text-anchor="middle" font-size="10" fill="#1a73e8">Layer 1: Route53 detects Tokyo ALB failure → DNS flips to Osaka ALB (~20s).</text>
<text x="1338" y="1380" text-anchor="middle" font-size="9" fill="#888">Recovery: Tokyo TGW restores → BGP prefers Tokyo again (LOCAL_PREF 200 wins automatically).</text>
<rect x="20" y="1464" width="1760" height="56" rx="8" fill="#fff" stroke="#ddd" stroke-width="1.5"/>
<text x="900" y="1482" text-anchor="middle" font-size="10" font-weight="bold" fill="#444">Legend</text>
<line x1="40" y1="1496" x2="74" y2="1496" stroke="#1b5e20" stroke-width="2.5"/>
<text x="80" y="1500" font-size="10" fill="#333">Primary on-prem path (BGP LOCAL_PREF 200)</text>
<line x1="340" y1="1496" x2="374" y2="1496" stroke="#e65100" stroke-width="2" stroke-dasharray="6,3"/>
<text x="380" y="1500" font-size="10" fill="#333">Secondary on-prem path (BGP LOCAL_PREF 100)</text>
<line x1="680" y1="1496" x2="714" y2="1496" stroke="#b71c1c" stroke-width="2" stroke-dasharray="6,3"/>
<text x="720" y="1500" font-size="10" fill="#333">TGW Inter-Region Peering (VPC-to-VPC only)</text>
<line x1="1020" y1="1496" x2="1054" y2="1496" stroke="#1a73e8" stroke-width="2" stroke-dasharray="5,3"/>
<text x="1060" y="1500" font-size="10" fill="#333">User traffic — DR Layer 1 (Route53)</text>
<text x="900" y="1516" text-anchor="middle" font-size="10" fill="#b71c1c" font-weight="bold">KEY: The on-prem router switches between TGWs via BGP. Tokyo VPC never needs to reach Osaka TGW directly. No cross-region VPC attachment required.</text>
</svg>


